<mxfile host="app.diagrams.net" agent="Mozilla/5.0 (Windows NT 10.0; Win64; x64; rv:143.0) Gecko/20100101 Firefox/143.0" version="28.2.5">
  <diagram name="Page-1" id="G7PVCsgG5xR6e8oMhp8H">
    <mxGraphModel dx="2276" dy="750" grid="1" gridSize="10" guides="1" tooltips="1" connect="1" arrows="1" fold="1" page="1" pageScale="1" pageWidth="850" pageHeight="1100" background="#ffffff" math="0" shadow="0">
      <root>
        <mxCell id="0" />
        <mxCell id="1" parent="0" />
        <mxCell id="hIRztIpysJzaXf3mCS6x-80" value="&lt;div&gt;&lt;font&gt;Enter&amp;nbsp;query&lt;/font&gt;&lt;/div&gt;" style="html=1;verticalAlign=bottom;endArrow=block;curved=0;rounded=0;entryX=0;entryY=0;entryDx=0;entryDy=5;" edge="1" target="hIRztIpysJzaXf3mCS6x-79" parent="1" source="hIRztIpysJzaXf3mCS6x-92">
          <mxGeometry relative="1" as="geometry">
            <mxPoint x="180" y="535" as="sourcePoint" />
          </mxGeometry>
        </mxCell>
        <mxCell id="hIRztIpysJzaXf3mCS6x-81" value="&lt;font&gt;Show results&lt;/font&gt;" style="html=1;verticalAlign=bottom;endArrow=open;dashed=1;endSize=8;curved=0;rounded=0;exitX=0;exitY=1;exitDx=0;exitDy=-5;" edge="1" source="hIRztIpysJzaXf3mCS6x-79" parent="1" target="hIRztIpysJzaXf3mCS6x-92">
          <mxGeometry relative="1" as="geometry">
            <mxPoint x="180" y="605" as="targetPoint" />
          </mxGeometry>
        </mxCell>
        <mxCell id="hIRztIpysJzaXf3mCS6x-82" value="Document Service" style="shape=umlLifeline;perimeter=lifelinePerimeter;whiteSpace=wrap;html=1;container=1;dropTarget=0;collapsible=0;recursiveResize=0;outlineConnect=0;portConstraint=eastwest;newEdgeStyle={&quot;curved&quot;:0,&quot;rounded&quot;:0};fillColor=#cce5ff;strokeColor=#36393d;" vertex="1" parent="1">
          <mxGeometry x="290" y="680" width="100" height="330" as="geometry" />
        </mxCell>
        <mxCell id="hIRztIpysJzaXf3mCS6x-118" value="" style="html=1;points=[[0,0,0,0,5],[0,1,0,0,-5],[1,0,0,0,5],[1,1,0,0,-5]];perimeter=orthogonalPerimeter;outlineConnect=0;targetShapes=umlLifeline;portConstraint=eastwest;newEdgeStyle={&quot;curved&quot;:0,&quot;rounded&quot;:0};fillColor=#cce5ff;strokeColor=#36393d;" vertex="1" parent="hIRztIpysJzaXf3mCS6x-82">
          <mxGeometry x="45" y="120" width="10" height="130" as="geometry" />
        </mxCell>
        <mxCell id="hIRztIpysJzaXf3mCS6x-84" value="Document Handler" style="shape=umlLifeline;perimeter=lifelinePerimeter;whiteSpace=wrap;html=1;container=1;dropTarget=0;collapsible=0;recursiveResize=0;outlineConnect=0;portConstraint=eastwest;newEdgeStyle={&quot;curved&quot;:0,&quot;rounded&quot;:0};fillColor=#cce5ff;strokeColor=#36393d;" vertex="1" parent="1">
          <mxGeometry x="90" y="680" width="100" height="330" as="geometry" />
        </mxCell>
        <mxCell id="hIRztIpysJzaXf3mCS6x-115" value="" style="html=1;points=[[0,0,0,0,5],[0,1,0,0,-5],[1,0,0,0,5],[1,1,0,0,-5]];perimeter=orthogonalPerimeter;outlineConnect=0;targetShapes=umlLifeline;portConstraint=eastwest;newEdgeStyle={&quot;curved&quot;:0,&quot;rounded&quot;:0};fillColor=#cce5ff;strokeColor=#36393d;" vertex="1" parent="hIRztIpysJzaXf3mCS6x-84">
          <mxGeometry x="45" y="100" width="10" height="170" as="geometry" />
        </mxCell>
        <mxCell id="hIRztIpysJzaXf3mCS6x-86" value="Web Browser" style="shape=umlLifeline;perimeter=lifelinePerimeter;whiteSpace=wrap;html=1;container=1;dropTarget=0;collapsible=0;recursiveResize=0;outlineConnect=0;portConstraint=eastwest;newEdgeStyle={&quot;curved&quot;:0,&quot;rounded&quot;:0};fillColor=#cce5ff;strokeColor=#36393d;" vertex="1" parent="1">
          <mxGeometry x="-70" y="680" width="100" height="330" as="geometry" />
        </mxCell>
        <mxCell id="hIRztIpysJzaXf3mCS6x-79" value="" style="html=1;points=[[0,0,0,0,5],[0,1,0,0,-5],[1,0,0,0,5],[1,1,0,0,-5]];perimeter=orthogonalPerimeter;outlineConnect=0;targetShapes=umlLifeline;portConstraint=eastwest;newEdgeStyle={&quot;curved&quot;:0,&quot;rounded&quot;:0};fillColor=#cce5ff;strokeColor=#36393d;" vertex="1" parent="hIRztIpysJzaXf3mCS6x-86">
          <mxGeometry x="45" y="80" width="10" height="210" as="geometry" />
        </mxCell>
        <mxCell id="hIRztIpysJzaXf3mCS6x-92" value="&lt;div&gt;User&lt;/div&gt;&lt;div&gt;&lt;br&gt;&lt;/div&gt;" style="shape=umlLifeline;participant=umlActor;perimeter=lifelinePerimeter;html=1;container=1;collapsible=0;recursiveResize=0;verticalAlign=top;spacingTop=36;outlineConnect=0;size=40;fillColor=#cce5ff;strokeColor=#36393d;" vertex="1" parent="1">
          <mxGeometry x="-190" y="680" width="20" height="330" as="geometry" />
        </mxCell>
        <mxCell id="hIRztIpysJzaXf3mCS6x-99" value="&lt;div&gt;Document Repo&lt;/div&gt;" style="shape=umlLifeline;perimeter=lifelinePerimeter;whiteSpace=wrap;html=1;container=1;dropTarget=0;collapsible=0;recursiveResize=0;outlineConnect=0;portConstraint=eastwest;newEdgeStyle={&quot;curved&quot;:0,&quot;rounded&quot;:0};fillColor=#cce5ff;strokeColor=#36393d;" vertex="1" parent="1">
          <mxGeometry x="520" y="680" width="100" height="330" as="geometry" />
        </mxCell>
        <mxCell id="hIRztIpysJzaXf3mCS6x-121" value="" style="html=1;points=[[0,0,0,0,5],[0,1,0,0,-5],[1,0,0,0,5],[1,1,0,0,-5]];perimeter=orthogonalPerimeter;outlineConnect=0;targetShapes=umlLifeline;portConstraint=eastwest;newEdgeStyle={&quot;curved&quot;:0,&quot;rounded&quot;:0};fillColor=#cce5ff;strokeColor=#36393d;" vertex="1" parent="hIRztIpysJzaXf3mCS6x-99">
          <mxGeometry x="45" y="140" width="10" height="90" as="geometry" />
        </mxCell>
        <mxCell id="hIRztIpysJzaXf3mCS6x-103" value="&lt;div&gt;Database&lt;/div&gt;" style="shape=umlLifeline;perimeter=lifelinePerimeter;whiteSpace=wrap;html=1;container=1;dropTarget=0;collapsible=0;recursiveResize=0;outlineConnect=0;portConstraint=eastwest;newEdgeStyle={&quot;curved&quot;:0,&quot;rounded&quot;:0};participant=umlEntity;fillColor=#cce5ff;strokeColor=#36393d;" vertex="1" parent="1">
          <mxGeometry x="710" y="680" width="40" height="330" as="geometry" />
        </mxCell>
        <mxCell id="hIRztIpysJzaXf3mCS6x-124" value="" style="html=1;points=[[0,0,0,0,5],[0,1,0,0,-5],[1,0,0,0,5],[1,1,0,0,-5]];perimeter=orthogonalPerimeter;outlineConnect=0;targetShapes=umlLifeline;portConstraint=eastwest;newEdgeStyle={&quot;curved&quot;:0,&quot;rounded&quot;:0};fillColor=#cce5ff;strokeColor=#36393d;" vertex="1" parent="hIRztIpysJzaXf3mCS6x-103">
          <mxGeometry x="15" y="160" width="10" height="50" as="geometry" />
        </mxCell>
        <mxCell id="hIRztIpysJzaXf3mCS6x-113" value="&lt;div&gt;&lt;font&gt;POST /query&lt;/font&gt;&lt;/div&gt;" style="html=1;verticalAlign=bottom;endArrow=block;curved=0;rounded=0;entryX=0;entryY=0;entryDx=0;entryDy=5;" edge="1" parent="1" target="hIRztIpysJzaXf3mCS6x-115" source="hIRztIpysJzaXf3mCS6x-79">
          <mxGeometry relative="1" as="geometry">
            <mxPoint x="-21" y="810" as="sourcePoint" />
          </mxGeometry>
        </mxCell>
        <mxCell id="hIRztIpysJzaXf3mCS6x-114" value="&lt;div&gt;&lt;font&gt;200 OK,&lt;/font&gt;&lt;/div&gt;&lt;div&gt;&lt;font&gt;JSON response&lt;/font&gt;&lt;/div&gt;" style="html=1;verticalAlign=bottom;endArrow=open;dashed=1;endSize=8;curved=0;rounded=0;exitX=0;exitY=1;exitDx=0;exitDy=-5;" edge="1" parent="1" source="hIRztIpysJzaXf3mCS6x-115" target="hIRztIpysJzaXf3mCS6x-79">
          <mxGeometry y="15" relative="1" as="geometry">
            <mxPoint x="-21" y="880" as="targetPoint" />
            <mxPoint as="offset" />
          </mxGeometry>
        </mxCell>
        <mxCell id="hIRztIpysJzaXf3mCS6x-116" value="GetDocumentsByQuery(query)" style="html=1;verticalAlign=bottom;endArrow=block;curved=0;rounded=0;entryX=0;entryY=0;entryDx=0;entryDy=5;" edge="1" parent="1" target="hIRztIpysJzaXf3mCS6x-118" source="hIRztIpysJzaXf3mCS6x-115">
          <mxGeometry relative="1" as="geometry">
            <mxPoint x="179" y="810" as="sourcePoint" />
          </mxGeometry>
        </mxCell>
        <mxCell id="hIRztIpysJzaXf3mCS6x-117" value="[]DocumentRetrieve" style="html=1;verticalAlign=bottom;endArrow=open;dashed=1;endSize=8;curved=0;rounded=0;exitX=0;exitY=1;exitDx=0;exitDy=-5;" edge="1" parent="1" source="hIRztIpysJzaXf3mCS6x-118" target="hIRztIpysJzaXf3mCS6x-115">
          <mxGeometry relative="1" as="geometry">
            <mxPoint x="179" y="880" as="targetPoint" />
          </mxGeometry>
        </mxCell>
        <mxCell id="hIRztIpysJzaXf3mCS6x-119" value="RetrieveDocumentsByQuery(query)" style="html=1;verticalAlign=bottom;endArrow=block;curved=0;rounded=0;entryX=0;entryY=0;entryDx=0;entryDy=5;" edge="1" parent="1" target="hIRztIpysJzaXf3mCS6x-121" source="hIRztIpysJzaXf3mCS6x-118">
          <mxGeometry relative="1" as="geometry">
            <mxPoint x="409" y="805" as="sourcePoint" />
          </mxGeometry>
        </mxCell>
        <mxCell id="hIRztIpysJzaXf3mCS6x-120" value="[]DocumentRetrieve" style="html=1;verticalAlign=bottom;endArrow=open;dashed=1;endSize=8;curved=0;rounded=0;exitX=0;exitY=1;exitDx=0;exitDy=-5;" edge="1" parent="1" source="hIRztIpysJzaXf3mCS6x-121" target="hIRztIpysJzaXf3mCS6x-118">
          <mxGeometry x="-0.068" relative="1" as="geometry">
            <mxPoint x="409" y="875" as="targetPoint" />
            <mxPoint as="offset" />
          </mxGeometry>
        </mxCell>
        <mxCell id="hIRztIpysJzaXf3mCS6x-122" value="&lt;div&gt;SQL query&lt;/div&gt;" style="html=1;verticalAlign=bottom;endArrow=block;curved=0;rounded=0;entryX=0;entryY=0;entryDx=0;entryDy=5;" edge="1" parent="1" target="hIRztIpysJzaXf3mCS6x-124" source="hIRztIpysJzaXf3mCS6x-121">
          <mxGeometry relative="1" as="geometry">
            <mxPoint x="569" y="805" as="sourcePoint" />
          </mxGeometry>
        </mxCell>
        <mxCell id="hIRztIpysJzaXf3mCS6x-123" value="[]DocumentRetrieve" style="html=1;verticalAlign=bottom;endArrow=open;dashed=1;endSize=8;curved=0;rounded=0;exitX=0;exitY=1;exitDx=0;exitDy=-5;" edge="1" parent="1" source="hIRztIpysJzaXf3mCS6x-124" target="hIRztIpysJzaXf3mCS6x-121">
          <mxGeometry relative="1" as="geometry">
            <mxPoint x="569" y="875" as="targetPoint" />
          </mxGeometry>
        </mxCell>
        <mxCell id="hIRztIpysJzaXf3mCS6x-126" value="&lt;font style=&quot;font-size: 25px;&quot;&gt;&lt;span&gt;Document Search Sequence Diagram&lt;/span&gt;&lt;/font&gt;" style="text;html=1;align=center;verticalAlign=middle;whiteSpace=wrap;rounded=0;fontStyle=0" vertex="1" parent="1">
          <mxGeometry x="130" y="540" width="280" height="45" as="geometry" />
        </mxCell>
      </root>
    </mxGraphModel>
  </diagram>
</mxfile>
